<svg xmlns="http://www.w3.org/2000/svg" viewBox="0 0 1200 1000">
  <defs>
    <linearGradient id="bg1" x1="0" x2="1" y1="0" y2="1">
      <stop offset="0%" stop-color="#d7f1ff"/>
      <stop offset="100%" stop-color="#baf0d4"/>
    </linearGradient>
  </defs>
  <rect width="1200" height="1000" fill="#eee"/>
  <rect width="1200" height="1000" fill="url(#bg1)"/>
  <rect x="0" y="680" width="1200" height="320" fill="#c7d7d7"/>
  <rect x="80" y="200" width="1040" height="560" rx="40" fill="#f6f0e7"/>
  <rect x="180" y="250" width="260" height="400" fill="#d2ecff" rx="26"/>
  <rect x="470" y="250" width="260" height="400" fill="#b5ecdd" rx="26"/>
  <rect x="760" y="250" width="260" height="400" fill="#d9e9ff" rx="26"/>
  <rect x="105" y="680" width="990" height="80" rx="18" fill="#a6d8f4"/>
  <rect x="260" y="450" width="110" height="110" rx="18" fill="#fefefe"/>
  <rect x="550" y="450" width="110" height="110" rx="18" fill="#fefefe"/>
  <rect x="840" y="450" width="110" height="110" rx="18" fill="#fefefe"/>
  <path d="M190 170 L1010 170" stroke="#a2d0f8" stroke-width="18" stroke-linecap="round"/>
  <path d="M180 130 L1020 130" stroke="#7bb3de" stroke-width="8" stroke-linecap="round"/>
  <circle cx="170" cy="150" r="42" fill="#4db9ff" opacity=".8"/>
  <circle cx="1030" cy="150" r="42" fill="#4db9ff" opacity=".8"/>
  <text x="600" y="110" font-size="70" text-anchor="middle" fill="#0b1f33" font-family="Arial, sans-serif" font-weight="700">Welcome</text>
  <text x="600" y="830" font-size="90" text-anchor="middle" fill="#0b1f33" font-family="Arial, sans-serif" font-weight="700">Allied School</text>
</svg>
